<svg xmlns="http://www.w3.org/2000/svg" xmlns:xlink="http://www.w3.org/1999/xlink" version="1.1" x="0px" y="0px" viewBox="0 0 512 640" style="enable-background:new 0 0 512 512;" xml:space="preserve"><style type="text/css">
	.st0{fill-rule:evenodd;clip-rule:evenodd;}
</style><path class="st0" d="M286.442,470.042h-50.744c4.298,19.922,29.156,27.425,43.726,12.854  C282.884,479.436,285.371,475.003,286.442,470.042L286.442,470.042z M79.878,470.042c4.297,19.921,29.154,27.426,43.726,12.854  c3.46-3.46,5.947-7.893,7.018-12.854H79.878L79.878,470.042z M304.724,379.169v79.873h173.076v-79.873H304.724L304.724,379.169z   M449.403,470.042h-50.744c4.297,19.92,29.154,27.427,43.726,12.854C445.845,479.436,448.332,475.003,449.403,470.042  L449.403,470.042z M304.724,115.033c0,13.944,11.429,25.373,25.373,25.373h122.329c22.271,0,34.015-27.19,17.915-43.289  c-4.601-4.601-10.944-7.458-17.916-7.458H330.097C316.152,89.659,304.724,101.088,304.724,115.033L304.724,115.033z   M477.799,141.042c-6.563,6.404-15.526,10.365-25.373,10.365H330.097c-9.847,0-18.81-3.961-25.373-10.365v227.128h173.076V141.042  L477.799,141.042z M434.984,185.483v68.222h-87.446v-68.222H434.984L434.984,185.483z M342.039,174.483h98.446  c3.037,0,5.5,2.463,5.5,5.5v79.222c0,3.037-2.463,5.5-5.5,5.5h-98.446c-3.037,0-5.5-2.463-5.5-5.5v-79.222  C336.539,176.945,339.001,174.483,342.039,174.483L342.039,174.483z M349.353,287.418v18.126h-18.126v-18.126H349.353  L349.353,287.418z M325.727,276.418h29.126c3.037,0,5.5,2.463,5.5,5.5v29.126c0,3.037-2.463,5.5-5.5,5.5h-29.126  c-3.037,0-5.5-2.463-5.5-5.5v-29.126C320.227,278.881,322.69,276.418,325.727,276.418L325.727,276.418z M400.324,287.418v18.126  h-18.126v-18.126H400.324L400.324,287.418z M376.699,276.418h29.126c3.037,0,5.5,2.463,5.5,5.5v29.126c0,3.037-2.463,5.5-5.5,5.5  h-29.126c-3.037,0-5.5-2.463-5.5-5.5v-29.126C371.199,278.881,373.661,276.418,376.699,276.418L376.699,276.418z M451.296,287.418  v18.126H433.17v-18.126H451.296L451.296,287.418z M427.67,276.418h29.126c3.037,0,5.5,2.463,5.5,5.5v29.126  c0,3.037-2.463,5.5-5.5,5.5H427.67c-3.037,0-5.5-2.463-5.5-5.5v-29.126C422.17,278.881,424.633,276.418,427.67,276.418  L427.67,276.418z M245.603,278.393v19.292h48.12v-19.292H245.603L245.603,278.393z M216.477,278.393v19.292h18.126v-19.292H216.477  L216.477,278.393z M128.517,278.393v19.292h76.96v-19.292H128.517L128.517,278.393z M99.391,278.393v19.292h18.126v-19.292H99.391  L99.391,278.393z M185.898,267.393c35.942,0,71.884,0,107.826,0v-28.611h-76.921c-3.037,0-5.5-2.463-5.5-5.5V199.17h-25.405V267.393  L185.898,267.393z M151.818,267.393h23.08V199.17h-23.08V267.393L151.818,267.393z M123.599,159.559H42.927v107.833  c32.63,0,65.261,0,97.891,0v-72.464L123.599,159.559L123.599,159.559z M209.324,121.692l-32.362,66.478h-27.21l-32.362-66.478  H209.324L209.324,121.692z M377.57,118.196c-3.037,0-5.5-2.463-5.5-5.5c0-3.037,2.463-5.5,5.5-5.5h74.856c3.037,0,5.5,2.463,5.5,5.5  c0,3.037-2.463,5.5-5.5,5.5H377.57L377.57,118.196z M330.097,118.196c-3.037,0-5.5-2.463-5.5-5.5c0-3.037,2.463-5.5,5.5-5.5h21.473  c3.037,0,5.5,2.463,5.5,5.5c0,3.037-2.463,5.5-5.5,5.5H330.097L330.097,118.196z M105.724,209.069c2.913,2.913,2.913,7.64,0,10.552  c-4.685,4.685-12.737,1.356-12.737-5.276C92.987,207.713,101.04,204.385,105.724,209.069L105.724,209.069z M105.948,196.718  c13.148,4.1,17.408,20.826,7.553,30.681c-2.085,2.085-4.668,3.674-7.553,4.574v13.974c0,3.037-2.463,5.5-5.5,5.5  c-3.037,0-5.5-2.463-5.5-5.5v-13.974c-13.149-4.1-17.408-20.826-7.554-30.681c2.086-2.086,4.668-3.675,7.554-4.574v-13.974  c0-3.037,2.463-5.5,5.5-5.5c3.037,0,5.5,2.463,5.5,5.5V196.718L105.948,196.718z M360.397,228.001c-3.037,0-5.5-2.463-5.5-5.5  c0-3.037,2.463-5.5,5.5-5.5h18.324l14.722-13.145c3.087-2.759,7.914-1.203,8.945,2.668l0.014-0.004l2.092,7.81h16.484  c3.037,0,5.5,2.463,5.5,5.5c0,3.037-2.463,5.5-5.5,5.5h-20.697v-0.007c-2.428,0.001-4.65-1.619-5.306-4.076l-0.881-3.288  l-9.292,8.296c-1.004,1.074-2.432,1.745-4.018,1.745H360.397L360.397,228.001z M140.203,38.458c3.037,0,5.5,2.463,5.5,5.5  s-2.463,5.5-5.5,5.5h-26.102v10.553h26.102c3.037,0,5.5,2.463,5.5,5.5c0,3.037-2.463,5.5-5.5,5.5h-26.102v10.553h26.102  c3.037,0,5.5,2.463,5.5,5.5c0,3.037-2.463,5.5-5.5,5.5h-26.102v18.128h98.513V21.498h-98.513v16.959H140.203L140.203,38.458z   M370.335,336.64c2.913,2.913,2.913,7.639,0,10.552c-4.684,4.684-12.737,1.356-12.737-5.276  C357.598,335.286,365.65,331.954,370.335,336.64L370.335,336.64z M365.059,323.455c16.387,0,24.659,19.909,13.053,31.515  c-11.604,11.604-31.514,3.335-31.514-13.054C346.598,331.722,354.865,323.455,365.059,323.455L365.059,323.455z M423.054,336.64  c2.913,2.913,2.913,7.639,0,10.552c-4.684,4.684-12.737,1.356-12.737-5.276C410.317,335.286,418.368,331.954,423.054,336.64  L423.054,336.64z M417.778,323.455c16.387,0,24.659,19.909,13.053,31.515c-11.604,11.604-31.514,3.335-31.514-13.054  C399.317,331.722,407.584,323.455,417.778,323.455L417.778,323.455z M101.609,354.765c3.037,0,5.5,2.463,5.5,5.5  c0,3.037-2.463,5.5-5.5,5.5h-67.42v10.553h67.42c3.037,0,5.5,2.463,5.5,5.5c0,3.037-2.463,5.5-5.5,5.5h-67.42v10.553h67.42  c3.037,0,5.5,2.463,5.5,5.5c0,3.037-2.463,5.5-5.5,5.5h-67.42v50.17c86.512,0,173.023,0,259.535,0V308.685  c-86.512,0-173.023,0-259.535,0v46.081H101.609L101.609,354.765z M385.23,436.9c3.037,0,5.5,2.463,5.5,5.5s-2.463,5.5-5.5,5.5  h-54.32c-3.037,0-5.5-2.463-5.5-5.5s2.463-5.5,5.5-5.5H385.23L385.23,436.9z M385.23,415.347c3.037,0,5.5,2.463,5.5,5.5  s-2.463,5.5-5.5,5.5h-54.32c-3.037,0-5.5-2.463-5.5-5.5s2.463-5.5,5.5-5.5H385.23L385.23,415.347z M385.23,393.794  c3.037,0,5.5,2.463,5.5,5.5c0,3.037-2.463,5.5-5.5,5.5h-54.32c-3.037,0-5.5-2.463-5.5-5.5c0-3.037,2.463-5.5,5.5-5.5H385.23  L385.23,393.794z M261.115,339.552v21.621H160.271v-21.621H261.115L261.115,339.552z M154.771,328.552h111.844  c3.037,0,5.5,2.463,5.5,5.5v32.621c0,3.037-2.463,5.5-5.5,5.5H154.771c-3.037,0-5.5-2.463-5.5-5.5v-32.621  C149.271,331.015,151.734,328.552,154.771,328.552L154.771,328.552z M237.853,430.493c3.037,0,5.5,2.463,5.5,5.5  c0,3.037-2.463,5.5-5.5,5.5h-54.32c-3.037,0-5.5-2.463-5.5-5.5c0-3.037,2.463-5.5,5.5-5.5H237.853L237.853,430.493z M237.853,408.94  c3.037,0,5.5,2.463,5.5,5.5c0,3.037-2.463,5.5-5.5,5.5h-54.32c-3.037,0-5.5-2.463-5.5-5.5c0-3.037,2.463-5.5,5.5-5.5H237.853  L237.853,408.94z M237.853,387.387c3.037,0,5.5,2.463,5.5,5.5c0,3.037-2.463,5.5-5.5,5.5h-54.32c-3.037,0-5.5-2.463-5.5-5.5  c0-3.037,2.463-5.5,5.5-5.5H237.853z"/><text x="0" y="527" fill="#000000" font-size="5px" font-weight="bold" font-family="'Helvetica Neue', Helvetica, Arial-Unicode, Arial, Sans-serif">Created by adi_sena</text><text x="0" y="532" fill="#000000" font-size="5px" font-weight="bold" font-family="'Helvetica Neue', Helvetica, Arial-Unicode, Arial, Sans-serif">from the Noun Project</text></svg>