<svg xmlns="http://www.w3.org/2000/svg" xmlns:xlink="http://www.w3.org/1999/xlink" version="1.1" x="0px" y="0px" viewBox="0 0 58 72.5" style="enable-background:new 0 0 58 58;" xml:space="preserve"><g><path d="M22.706,10.07C25.995,5.774,31.172,3,37,3c9.941,0,18,8.059,18,18c0,7.657-4.786,14.189-11.526,16.79   c-0.255,1.191-0.585,2.362-1.021,3.491C51.567,38.853,58,30.608,58,21C58,9.42,48.58,0,37,0c-7.43,0-14.135,3.824-17.933,10.087   C19.705,10.034,20.348,10,21,10C21.575,10,22.142,10.028,22.706,10.07z"/><circle cx="21" cy="16" r="1"/><path d="M10.5,14.813c-0.09,0.052-0.164,0.121-0.249,0.179c0.142-0.085,0.281-0.177,0.425-0.258   C10.618,14.764,10.557,14.781,10.5,14.813z"/><ellipse transform="matrix(0.2588 -0.9659 0.9659 0.2588 -8.39 25.621)" cx="12.5" cy="18.278" rx="1" ry="1"/><path d="M2.813,22.5c-0.033,0.057-0.05,0.118-0.079,0.176c0.082-0.145,0.173-0.283,0.259-0.425   C2.935,22.336,2.866,22.409,2.813,22.5z"/><path d="M5.778,25.366c0.478,0.276,1.09,0.112,1.366-0.366c0.276-0.478,0.112-1.09-0.366-1.366C6.299,23.358,5.688,23.522,5.412,24   C5.135,24.478,5.299,25.09,5.778,25.366z"/><circle cx="4" cy="33" r="1"/><path d="M6.778,42.366C7.256,42.09,7.42,41.478,7.144,41c-0.276-0.478-0.888-0.642-1.366-0.366C5.299,40.91,5.135,41.522,5.412,42   C5.688,42.478,6.299,42.642,6.778,42.366z"/><path d="M2.813,43.5c0.027,0.046,0.063,0.082,0.091,0.127c-0.044-0.074-0.091-0.146-0.133-0.22   C2.788,43.437,2.796,43.47,2.813,43.5z"/><path d="M10.5,51.187c0.059,0.034,0.122,0.051,0.182,0.082c-0.129-0.073-0.254-0.15-0.381-0.225   C10.37,51.089,10.427,51.145,10.5,51.187z"/><path d="M13.366,48.222c0.276-0.478,0.112-1.09-0.366-1.366s-1.09-0.112-1.366,0.366s-0.112,1.09,0.366,1.366   S13.09,48.701,13.366,48.222z"/><path d="M29,46.856c-0.478,0.276-0.642,0.888-0.366,1.366s0.888,0.642,1.366,0.366s0.642-0.888,0.366-1.366S29.478,46.58,29,46.856   z"/><path d="M36.222,40.634c-0.478-0.276-1.09-0.112-1.366,0.366c-0.276,0.478-0.112,1.09,0.366,1.366   c0.478,0.276,1.09,0.112,1.366-0.366C36.865,41.522,36.701,40.91,36.222,40.634z"/><path d="M39.187,43.5c0.023-0.04,0.034-0.084,0.056-0.125c-0.037,0.065-0.07,0.132-0.108,0.196   C39.15,43.546,39.171,43.526,39.187,43.5z"/><circle cx="38" cy="33" r="1"/><path d="M39.187,22.5c-0.052-0.091-0.121-0.164-0.179-0.249c0.085,0.142,0.177,0.281,0.259,0.425   C39.236,22.618,39.219,22.557,39.187,22.5z"/><path d="M35.222,23.634C34.744,23.91,34.58,24.522,34.856,25c0.276,0.478,0.888,0.642,1.366,0.366   c0.478-0.276,0.642-0.888,0.366-1.366C36.312,23.522,35.701,23.358,35.222,23.634z"/><ellipse transform="matrix(0.9659 -0.2588 0.2588 0.9659 -3.7254 8.258)" cx="29.5" cy="18.278" rx="1" ry="1"/><path d="M31.5,14.813c-0.057-0.033-0.118-0.05-0.176-0.079c0.145,0.082,0.283,0.173,0.425,0.258   C31.664,14.935,31.59,14.866,31.5,14.813z"/><path d="M21,46c-7.168,0-13-5.832-13-13c0,2.209-1.791,4-4,4s-4-1.791-4-4c0,3.766,1.007,7.322,2.772,10.407   c-1.033-1.899-0.377-4.284,1.506-5.371c1.913-1.105,4.359-0.449,5.464,1.464c1.105,1.913,0.449,4.359-1.464,5.464   c-1.867,1.078-4.233,0.47-5.373-1.337c1.79,3.042,4.329,5.6,7.396,7.416c-1.748-1.158-2.327-3.48-1.265-5.321   c1.105-1.913,3.551-2.569,5.464-1.464s2.569,3.551,1.464,5.464c-1.071,1.854-3.398,2.512-5.282,1.546   c1.643,0.926,3.421,1.652,5.318,2.114V53c0-0.883,0.391-1.67,1-2.22V50C17,47.791,18.791,46,21,46z"/><path d="M38,37c-2.209,0-4-1.791-4-4c0,7.168-5.832,13-13,13c2.209,0,4,1.791,4,4h1.24c-0.066-0.095-0.145-0.176-0.204-0.278   c-1.105-1.913-0.449-4.36,1.464-5.464s4.36-0.449,5.464,1.464c0.799,1.385,0.671,3.045-0.183,4.278h0.535   c2.396-1.74,4.365-3.938,5.819-6.428c-1.125,1.853-3.525,2.482-5.412,1.392c-1.913-1.105-2.569-3.551-1.464-5.464   c1.105-1.913,3.551-2.569,5.464-1.464c1.873,1.081,2.529,3.445,1.52,5.34C41.02,40.256,42,36.692,42,33C42,35.209,40.209,37,38,37z   "/><path d="M20,50h2c0-0.552-0.448-1-1-1S20,49.448,20,50z"/><path d="M4,29c2.209,0,4,1.791,4,4c0-7.168,5.832-13,13-13c-2.209,0-4-1.791-4-4c0-2.209,1.791-4,4-4   c-3.753,0-7.271,1.002-10.324,2.734c1.885-0.97,4.216-0.313,5.288,1.543c1.105,1.913,0.449,4.36-1.464,5.464   c-1.913,1.105-4.36,0.449-5.464-1.464c-1.052-1.823-0.493-4.116,1.215-5.285c-2.979,1.785-5.474,4.28-7.259,7.259   c1.169-1.708,3.462-2.268,5.285-1.215c1.913,1.105,2.569,3.551,1.464,5.464c-1.105,1.913-3.551,2.569-5.464,1.464   c-1.856-1.072-2.514-3.402-1.544-5.288C1.002,25.729,0,29.247,0,33C0,30.791,1.791,29,4,29z"/><path d="M25,16c0,2.209-1.791,4-4,4c7.168,0,13,5.832,13,13c0-2.209,1.791-4,4-4s4,1.791,4,4c0-3.753-1.002-7.271-2.734-10.324   c0.97,1.885,0.313,4.216-1.544,5.288c-1.913,1.105-4.359,0.449-5.464-1.464c-1.105-1.913-0.449-4.36,1.464-5.464   c1.823-1.052,4.116-0.493,5.285,1.215c-1.785-2.979-4.28-5.474-7.259-7.259c1.708,1.169,2.268,3.462,1.215,5.285   c-1.105,1.913-3.551,2.569-5.464,1.464c-1.913-1.105-2.569-3.551-1.464-5.464c1.072-1.856,3.402-2.514,5.288-1.543   C28.271,13.002,24.753,12,21,12C23.209,12,25,13.791,25,16z"/><path d="M21,22c-6.065,0-11,4.935-11,11s4.935,11,11,11s11-4.935,11-11S27.065,22,21,22z M21,41c-4.418,0-8-3.582-8-8s3.582-8,8-8   s8,3.582,8,8S25.418,41,21,41z"/><path d="M57,52H19c-0.551,0-1,0.448-1,1v4c0,0.552,0.449,1,1,1h38c0.551,0,1-0.448,1-1v-4C58,52.448,57.551,52,57,52z M48,56h-2v-2   h2V56z M52,56h-2v-2h2V56z M56,56h-2v-2h2V56z"/></g><text x="0" y="73" fill="#000000" font-size="5px" font-weight="bold" font-family="'Helvetica Neue', Helvetica, Arial-Unicode, Arial, Sans-serif">Created by Eucalyp</text><text x="0" y="78" fill="#000000" font-size="5px" font-weight="bold" font-family="'Helvetica Neue', Helvetica, Arial-Unicode, Arial, Sans-serif">from the Noun Project</text></svg>